<mxfile host="app.diagrams.net" modified="2023-11-19T10:55:11.957Z" agent="Mozilla/5.0 (Windows NT 10.0; Win64; x64) AppleWebKit/537.36 (KHTML, like Gecko) Chrome/119.0.0.0 Safari/537.36" etag="IQaIONITcoA47TmUFyKL" version="22.1.3" type="google">
  <diagram id="C5RBs43oDa-KdzZeNtuy" name="Page-1">
    <mxGraphModel grid="1" page="1" gridSize="10" guides="1" tooltips="1" connect="1" arrows="1" fold="1" pageScale="1" pageWidth="827" pageHeight="1169" math="0" shadow="0">
      <root>
        <mxCell id="WIyWlLk6GJQsqaUBKTNV-0" />
        <mxCell id="WIyWlLk6GJQsqaUBKTNV-1" parent="WIyWlLk6GJQsqaUBKTNV-0" />
        <mxCell id="hzm5nS-1-b3PMZsYFxRv-0" value="Seleccionar Omplir perfil" style="rounded=1;whiteSpace=wrap;html=1;fontSize=12;glass=0;strokeWidth=1;shadow=0;" vertex="1" parent="WIyWlLk6GJQsqaUBKTNV-1">
          <mxGeometry x="194" y="302" width="120" height="40" as="geometry" />
        </mxCell>
        <mxCell id="hzm5nS-1-b3PMZsYFxRv-1" value="" style="ellipse;whiteSpace=wrap;html=1;aspect=fixed;fillColor=#000000;" vertex="1" parent="WIyWlLk6GJQsqaUBKTNV-1">
          <mxGeometry x="234" y="212" width="40" height="40" as="geometry" />
        </mxCell>
        <mxCell id="hzm5nS-1-b3PMZsYFxRv-2" value="" style="rounded=0;html=1;jettySize=auto;orthogonalLoop=1;fontSize=11;endArrow=block;endFill=0;endSize=8;strokeWidth=1;shadow=0;labelBackgroundColor=none;edgeStyle=orthogonalEdgeStyle;" edge="1" parent="WIyWlLk6GJQsqaUBKTNV-1">
          <mxGeometry relative="1" as="geometry">
            <mxPoint x="253.5" y="252" as="sourcePoint" />
            <mxPoint x="253.5" y="302" as="targetPoint" />
          </mxGeometry>
        </mxCell>
        <mxCell id="hzm5nS-1-b3PMZsYFxRv-4" value="" style="rounded=0;html=1;jettySize=auto;orthogonalLoop=1;fontSize=11;endArrow=block;endFill=0;endSize=8;strokeWidth=1;shadow=0;labelBackgroundColor=none;edgeStyle=orthogonalEdgeStyle;" edge="1" parent="WIyWlLk6GJQsqaUBKTNV-1">
          <mxGeometry relative="1" as="geometry">
            <mxPoint x="253.98000000000002" y="342" as="sourcePoint" />
            <mxPoint x="253.98000000000002" y="392" as="targetPoint" />
          </mxGeometry>
        </mxCell>
        <mxCell id="hzm5nS-1-b3PMZsYFxRv-5" value="Donar informació sobre mesures i talles de roba" style="rounded=1;whiteSpace=wrap;html=1;fontSize=12;glass=0;strokeWidth=1;shadow=0;" vertex="1" parent="WIyWlLk6GJQsqaUBKTNV-1">
          <mxGeometry x="174" y="392" width="160" height="40" as="geometry" />
        </mxCell>
        <mxCell id="hzm5nS-1-b3PMZsYFxRv-8" value="" style="rounded=0;html=1;jettySize=auto;orthogonalLoop=1;fontSize=11;endArrow=block;endFill=0;endSize=8;strokeWidth=1;shadow=0;labelBackgroundColor=none;edgeStyle=orthogonalEdgeStyle;" edge="1" parent="WIyWlLk6GJQsqaUBKTNV-1">
          <mxGeometry relative="1" as="geometry">
            <mxPoint x="253.99" y="432" as="sourcePoint" />
            <mxPoint x="253.99" y="482" as="targetPoint" />
          </mxGeometry>
        </mxCell>
        <mxCell id="hzm5nS-1-b3PMZsYFxRv-14" value="Confimar Dades?" style="rhombus;whiteSpace=wrap;html=1;shadow=0;fontFamily=Helvetica;fontSize=12;align=center;strokeWidth=1;spacing=6;spacingTop=-4;" vertex="1" parent="WIyWlLk6GJQsqaUBKTNV-1">
          <mxGeometry x="204.00000000000003" y="572" width="100" height="80" as="geometry" />
        </mxCell>
        <mxCell id="hzm5nS-1-b3PMZsYFxRv-15" value="Yes" style="rounded=0;html=1;jettySize=auto;orthogonalLoop=1;fontSize=11;endArrow=block;endFill=0;endSize=8;strokeWidth=1;shadow=0;labelBackgroundColor=none;edgeStyle=orthogonalEdgeStyle;entryX=0.5;entryY=0;entryDx=0;entryDy=0;" edge="1" parent="WIyWlLk6GJQsqaUBKTNV-1" target="gdtwytJyW-MPaigm0BIS-9">
          <mxGeometry x="-0.7824" y="10" relative="1" as="geometry">
            <mxPoint as="offset" />
            <mxPoint x="574" y="702" as="targetPoint" />
            <mxPoint x="253.72000000000003" y="652" as="sourcePoint" />
            <Array as="points">
              <mxPoint x="254" y="672" />
              <mxPoint x="574" y="672" />
            </Array>
          </mxGeometry>
        </mxCell>
        <mxCell id="hzm5nS-1-b3PMZsYFxRv-16" value="No" style="edgeStyle=orthogonalEdgeStyle;rounded=0;html=1;jettySize=auto;orthogonalLoop=1;fontSize=11;endArrow=block;endFill=0;endSize=8;strokeWidth=1;shadow=0;labelBackgroundColor=none;entryX=1;entryY=0.5;entryDx=0;entryDy=0;" edge="1" parent="WIyWlLk6GJQsqaUBKTNV-1" target="hzm5nS-1-b3PMZsYFxRv-5">
          <mxGeometry x="-0.8462" y="10" relative="1" as="geometry">
            <mxPoint as="offset" />
            <mxPoint x="313.98" y="502" as="targetPoint" />
            <mxPoint x="303.98" y="612" as="sourcePoint" />
            <Array as="points">
              <mxPoint x="374" y="612" />
              <mxPoint x="374" y="412" />
            </Array>
          </mxGeometry>
        </mxCell>
        <mxCell id="hzm5nS-1-b3PMZsYFxRv-19" value="Donar informació sobre gustos i referencies" style="rounded=1;whiteSpace=wrap;html=1;fontSize=12;glass=0;strokeWidth=1;shadow=0;" vertex="1" parent="WIyWlLk6GJQsqaUBKTNV-1">
          <mxGeometry x="174" y="482" width="160" height="40" as="geometry" />
        </mxCell>
        <mxCell id="hzm5nS-1-b3PMZsYFxRv-20" value="" style="rounded=0;html=1;jettySize=auto;orthogonalLoop=1;fontSize=11;endArrow=block;endFill=0;endSize=8;strokeWidth=1;shadow=0;labelBackgroundColor=none;edgeStyle=orthogonalEdgeStyle;" edge="1" parent="WIyWlLk6GJQsqaUBKTNV-1">
          <mxGeometry relative="1" as="geometry">
            <mxPoint x="253.99" y="522" as="sourcePoint" />
            <mxPoint x="253.99" y="572" as="targetPoint" />
          </mxGeometry>
        </mxCell>
        <mxCell id="gdtwytJyW-MPaigm0BIS-0" value="" style="endArrow=none;html=1;rounded=0;" edge="1" parent="WIyWlLk6GJQsqaUBKTNV-1">
          <mxGeometry width="50" height="50" relative="1" as="geometry">
            <mxPoint x="414" y="1008" as="sourcePoint" />
            <mxPoint x="414" y="182" as="targetPoint" />
          </mxGeometry>
        </mxCell>
        <mxCell id="gdtwytJyW-MPaigm0BIS-1" value="Client" style="rounded=0;whiteSpace=wrap;html=1;" vertex="1" parent="WIyWlLk6GJQsqaUBKTNV-1">
          <mxGeometry x="94" y="162" width="320" height="20" as="geometry" />
        </mxCell>
        <mxCell id="gdtwytJyW-MPaigm0BIS-2" value="Sistema" style="rounded=0;whiteSpace=wrap;html=1;" vertex="1" parent="WIyWlLk6GJQsqaUBKTNV-1">
          <mxGeometry x="414" y="162" width="320" height="20" as="geometry" />
        </mxCell>
        <mxCell id="gdtwytJyW-MPaigm0BIS-5" value="" style="ellipse;whiteSpace=wrap;html=1;aspect=fixed;fillColor=#000000;" vertex="1" parent="WIyWlLk6GJQsqaUBKTNV-1">
          <mxGeometry x="554" y="928" width="40" height="40" as="geometry" />
        </mxCell>
        <mxCell id="gdtwytJyW-MPaigm0BIS-6" value="" style="ellipse;whiteSpace=wrap;html=1;aspect=fixed;fillColor=none;strokeWidth=3;" vertex="1" parent="WIyWlLk6GJQsqaUBKTNV-1">
          <mxGeometry x="544" y="918" width="60" height="60" as="geometry" />
        </mxCell>
        <mxCell id="gdtwytJyW-MPaigm0BIS-7" value="Assignar PersonalShopper" style="rounded=1;whiteSpace=wrap;html=1;fontSize=12;glass=0;strokeWidth=1;shadow=0;" vertex="1" parent="WIyWlLk6GJQsqaUBKTNV-1">
          <mxGeometry x="494" y="828" width="160" height="40" as="geometry" />
        </mxCell>
        <mxCell id="gdtwytJyW-MPaigm0BIS-8" value="" style="rounded=0;html=1;jettySize=auto;orthogonalLoop=1;fontSize=11;endArrow=block;endFill=0;endSize=8;strokeWidth=1;shadow=0;labelBackgroundColor=none;edgeStyle=orthogonalEdgeStyle;" edge="1" parent="WIyWlLk6GJQsqaUBKTNV-1">
          <mxGeometry relative="1" as="geometry">
            <mxPoint x="573.97" y="868" as="sourcePoint" />
            <mxPoint x="573.97" y="918" as="targetPoint" />
          </mxGeometry>
        </mxCell>
        <mxCell id="gdtwytJyW-MPaigm0BIS-9" value="Dades correctes?" style="rhombus;whiteSpace=wrap;html=1;shadow=0;fontFamily=Helvetica;fontSize=12;align=center;strokeWidth=1;spacing=6;spacingTop=-4;" vertex="1" parent="WIyWlLk6GJQsqaUBKTNV-1">
          <mxGeometry x="524" y="698" width="100" height="80" as="geometry" />
        </mxCell>
        <mxCell id="gdtwytJyW-MPaigm0BIS-10" value="" style="rounded=0;html=1;jettySize=auto;orthogonalLoop=1;fontSize=11;endArrow=block;endFill=0;endSize=8;strokeWidth=1;shadow=0;labelBackgroundColor=none;edgeStyle=orthogonalEdgeStyle;" edge="1" parent="WIyWlLk6GJQsqaUBKTNV-1">
          <mxGeometry relative="1" as="geometry">
            <mxPoint x="573.71" y="778" as="sourcePoint" />
            <mxPoint x="573.71" y="828" as="targetPoint" />
          </mxGeometry>
        </mxCell>
        <mxCell id="gdtwytJyW-MPaigm0BIS-13" value="Yes" style="edgeLabel;html=1;align=center;verticalAlign=middle;resizable=0;points=[];" connectable="0" vertex="1" parent="gdtwytJyW-MPaigm0BIS-10">
          <mxGeometry x="-0.4243" relative="1" as="geometry">
            <mxPoint x="13" y="-6" as="offset" />
          </mxGeometry>
        </mxCell>
        <mxCell id="gdtwytJyW-MPaigm0BIS-14" value="No" style="edgeStyle=orthogonalEdgeStyle;rounded=0;html=1;jettySize=auto;orthogonalLoop=1;fontSize=11;endArrow=none;endFill=0;endSize=8;strokeWidth=1;shadow=0;labelBackgroundColor=none;exitX=1.002;exitY=0.504;exitDx=0;exitDy=0;exitPerimeter=0;" edge="1" parent="WIyWlLk6GJQsqaUBKTNV-1">
          <mxGeometry x="-0.9239" y="10" relative="1" as="geometry">
            <mxPoint as="offset" />
            <mxPoint x="373" y="412" as="targetPoint" />
            <mxPoint x="623.2" y="738.3199999999999" as="sourcePoint" />
            <Array as="points">
              <mxPoint x="687" y="738" />
              <mxPoint x="687" y="412" />
            </Array>
          </mxGeometry>
        </mxCell>
      </root>
    </mxGraphModel>
  </diagram>
</mxfile>
